<?xml version="1.0" encoding="UTF-8"?>
<svg width="700pt" height="700pt" version="1.1" viewBox="0 0 700 700" xmlns="http://www.w3.org/2000/svg">
 <g>
  <path d="m346.71 230.59c-32.941 0-62.59 19.766-75.766 49.41h151.53c-13.18-29.648-41.18-49.41-75.766-49.41z"/>
  <path d="m379.65 164.71c0 18.191-14.75 32.941-32.941 32.941-18.195 0-32.941-14.75-32.941-32.941 0-18.195 14.746-32.941 32.941-32.941 18.191 0 32.941 14.746 32.941 32.941"/>
  <path d="m501.53 16.469h-303.06c-34.586 0-62.586 28-62.586 62.59v401.88c0 34.59 28 62.59 62.586 62.59h303.06c34.59 0 62.59-28 62.59-62.59v-401.88c0-34.59-28-62.59-62.586-62.59zm-202.59 192.71c-9.8828-11.531-16.469-26.352-16.469-44.469 0-36.234 29.648-65.883 65.883-65.883s65.883 29.648 65.883 65.883c0 16.469-6.5898 31.293-16.469 44.469 32.941 16.469 57.648 47.766 64.234 85.648 0 4.9414 0 9.8828-3.293 13.176-4.9453 3.293-9.8867 4.9414-14.828 4.9414h-194.35c-4.9414 0-9.8828-1.6484-13.176-6.5898-3.293-3.293-4.9414-8.2344-3.293-13.176 6.5859-37.883 31.289-69.176 65.879-84zm182.82 252h-263.53c-9.8828 0-16.469-6.5898-16.469-16.469 0-9.8828 6.5898-16.469 16.469-16.469h263.53c9.8828 0 16.469 6.5898 16.469 16.469 0 9.8828-6.5859 16.469-16.469 16.469zm0-65.883h-263.53c-9.8828 0-16.469-6.5898-16.469-16.469 0-9.8828 6.5898-16.469 16.469-16.469h263.53c9.8828 0 16.469 6.5898 16.469 16.469 0 9.8828-6.5859 16.469-16.469 16.469z"/>
 </g>
</svg>
