<?xml version="1.0" encoding="utf-8"?>
<!-- Generator: Adobe Illustrator 27.0.0, SVG Export Plug-In . SVG Version: 6.00 Build 0)  -->
<svg version="1.1" id="Capa_1" xmlns="http://www.w3.org/2000/svg" xmlns:xlink="http://www.w3.org/1999/xlink" x="0px" y="0px"
	 viewBox="0 0 700 700" style="enable-background:new 0 0 700 700;" xml:space="preserve">
<style type="text/css">
	.st0{fill:#FFFFFF;}
</style>
<g>
	<path class="st0" d="M599.2,116.1c0-40.3-32.6-72.9-72.9-72.9H173.6c-40.3,0-72.9,32.6-72.9,72.9v467.8c0,40.3,32.6,72.9,72.9,72.9
		h352.8c40.3,0,72.9-32.6,72.9-72.9L599.2,116.1z M560.9,583.9c0,19.2-15.3,34.5-34.5,34.5H173.6c-19.2,0-34.5-15.3-34.5-34.5
		l0-467.8c0-19.2,15.3-34.5,34.5-34.5h352.8c19.2,0,34.5,15.3,34.5,34.5L560.9,583.9z"/>
	<path class="st0" d="M233,388.3h226.2c5.8,0,11.5-1.9,15.3-7.7c3.8-3.8,5.8-9.6,3.8-15.3c-7.7-46-36.4-82.4-74.8-99.7
		c11.5-13.4,19.2-30.7,19.2-51.8c0-42.2-34.5-76.7-76.7-76.7s-76.7,34.5-76.7,76.7c0,19.2,7.7,36.4,19.2,51.8
		c-38.3,19.2-69,55.6-74.8,99.7c0,5.8,0,11.5,3.8,15.3C221.5,386.4,227.3,388.3,233,388.3L233,388.3z M307.8,215.8
		c0-21.1,17.3-38.3,38.3-38.3s38.3,17.3,38.3,38.3s-17.3,38.3-38.3,38.3S307.8,236.9,307.8,215.8L307.8,215.8z M346.2,292.5
		c38.3,0,72.9,23,88.2,57.5H258C273.3,315.5,307.8,292.5,346.2,292.5L346.2,292.5z"/>
	<path class="st0" d="M503.4,445.9H196.6c-11.5,0-19.2,7.7-19.2,19.2c0,11.5,7.7,19.2,19.2,19.2h306.8c11.5,0,19.2-7.7,19.2-19.2
		C522.6,453.5,514.9,445.9,503.4,445.9z"/>
	<path class="st0" d="M503.4,522.5H196.6c-11.5,0-19.2,7.7-19.2,19.2c0,11.5,7.7,19.2,19.2,19.2h306.8c11.5,0,19.2-7.7,19.2-19.2
		C522.6,530.2,514.9,522.5,503.4,522.5z"/>
</g>
</svg>
